<svg width="36" height="36" viewBox="0 0 36 36" fill="none" xmlns="http://www.w3.org/2000/svg">
<path d="M22.4998 34.1249H13.4998C5.35476 34.1249 1.87476 30.6449 1.87476 22.4999V13.4999C1.87476 5.35494 5.35476 1.87494 13.4998 1.87494H20.9998C21.6148 1.87494 22.1248 2.38494 22.1248 2.99994C22.1248 3.61494 21.6148 4.12494 20.9998 4.12494H13.4998C6.58476 4.12494 4.12476 6.58494 4.12476 13.4999V22.4999C4.12476 29.4149 6.58476 31.8749 13.4998 31.8749H22.4998C29.4148 31.8749 31.8748 29.4149 31.8748 22.4999V14.9999C31.8748 14.3849 32.3848 13.8749 32.9998 13.8749C33.6148 13.8749 34.1248 14.3849 34.1248 14.9999V22.4999C34.1248 30.6449 30.6448 34.1249 22.4998 34.1249Z" fill="#353535"/>
<path d="M32.9998 16.1249H26.9998C21.8698 16.1249 19.8748 14.1299 19.8748 8.99992V2.99992C19.8748 2.54992 20.1448 2.12992 20.5648 1.96492C20.9848 1.78492 21.4648 1.88992 21.7948 2.20492L33.7948 14.2049C34.1098 14.5199 34.2148 15.0149 34.0348 15.4349C33.8548 15.8549 33.4498 16.1249 32.9998 16.1249ZM22.1248 5.71492V8.99992C22.1248 12.8699 23.1298 13.8749 26.9998 13.8749H30.2848L22.1248 5.71492Z" fill="#353535"/>
<path d="M19.5002 20.6251H10.5002C9.88524 20.6251 9.37524 20.1151 9.37524 19.5001C9.37524 18.8851 9.88524 18.3751 10.5002 18.3751H19.5002C20.1152 18.3751 20.6252 18.8851 20.6252 19.5001C20.6252 20.1151 20.1152 20.6251 19.5002 20.6251Z" fill="#353535"/>
<path d="M16.5002 26.6249H10.5002C9.88524 26.6249 9.37524 26.1149 9.37524 25.4999C9.37524 24.8849 9.88524 24.3749 10.5002 24.3749H16.5002C17.1152 24.3749 17.6252 24.8849 17.6252 25.4999C17.6252 26.1149 17.1152 26.6249 16.5002 26.6249Z" fill="#353535"/>
</svg>
