<svg width="24" height="24" viewBox="0 0 24 24" fill="none" xmlns="http://www.w3.org/2000/svg">
<path d="M4.25 3.625C4.25 3.45924 4.18415 3.30027 4.06694 3.18306C3.94973 3.06585 3.79076 3 3.625 3C3.45924 3 3.30027 3.06585 3.18306 3.18306C3.06585 3.30027 3 3.45924 3 3.625V17.875C3 18.7038 3.32924 19.4987 3.91529 20.0847C4.50134 20.6708 5.2962 21 6.125 21H20.375C20.5408 21 20.6997 20.9342 20.8169 20.8169C20.9342 20.6997 21 20.5408 21 20.375C21 20.2092 20.9342 20.0503 20.8169 19.9331C20.6997 19.8158 20.5408 19.75 20.375 19.75H6.125C5.62772 19.75 5.15081 19.5525 4.79917 19.2008C4.44754 18.8492 4.25 18.3723 4.25 17.875V3.625ZM14 6.625C14 6.28 14.28 6 14.625 6H19.625C19.97 6 20.25 6.28 20.25 6.625V11.625C20.25 11.7071 20.2338 11.7883 20.2024 11.8642C20.171 11.94 20.125 12.0089 20.0669 12.0669C20.0089 12.125 19.94 12.171 19.8642 12.2024C19.7883 12.2338 19.7071 12.25 19.625 12.25C19.5429 12.25 19.4617 12.2338 19.3858 12.2024C19.31 12.171 19.2411 12.125 19.1831 12.0669C19.125 12.0089 19.079 11.94 19.0476 11.8642C19.0162 11.7883 19 11.7071 19 11.625V8.134L13.942 13.192C13.8284 13.3055 13.6754 13.371 13.5148 13.3747C13.3542 13.3784 13.1983 13.3201 13.0795 13.212L10.7705 11.1135L7.067 14.817C6.94977 14.9342 6.79078 15.0001 6.625 15.0001C6.45922 15.0001 6.30023 14.9342 6.183 14.817C6.06577 14.6998 5.99992 14.5408 5.99992 14.375C5.99992 14.2092 6.06577 14.0502 6.183 13.933L10.308 9.808C10.4216 9.69446 10.5746 9.62904 10.7352 9.62532C10.8958 9.62159 11.0517 9.67985 11.1705 9.788L13.4795 11.8865L18.116 7.25H14.625C14.28 7.25 14 6.97 14 6.625Z" fill="#54577A"/>
</svg>
