<svg width="30" height="28" viewBox="0 0 30 28" fill="none" xmlns="http://www.w3.org/2000/svg">
<path d="M24.2428 8.75019L22.4117 10.4885L18.7251 6.98852L20.5561 5.25019C21.0723 4.76019 21.7359 4.52686 22.3995 4.52686C23.063 4.52686 23.7266 4.76019 24.2428 5.25019C25.2627 6.21852 25.2627 7.78186 24.2428 8.75019Z" fill="#0D192F"/>
<path d="M21.5515 11.3169L8.2674 23.9169C7.24744 24.8852 5.60074 24.8852 4.58078 23.9169C3.56081 22.9486 3.56081 21.3852 4.58078 20.4169L17.8649 7.81689L21.5515 11.3169Z" fill="#0D192F"/>
<path d="M12.507 4.08311L13.0109 2.46144C13.06 2.30978 13.0109 2.14644 12.9003 2.02978C12.7897 1.91311 12.593 1.86644 12.4333 1.91311L10.7251 2.39144L9.01701 1.91311C8.85726 1.86644 8.68522 1.91311 8.56233 2.01811C8.43944 2.13478 8.40258 2.29811 8.45173 2.44978L8.94328 4.08311L8.43944 5.70478C8.39029 5.85644 8.43944 6.01978 8.55004 6.13644C8.67293 6.25311 8.84497 6.28811 9.00472 6.24144L10.7251 5.77478L12.4333 6.25311C12.4824 6.26478 12.5193 6.27644 12.5685 6.27644C12.6913 6.27644 12.8019 6.22978 12.9003 6.14811C13.0231 6.03144 13.06 5.86811 13.0109 5.71644L12.507 4.08311Z" fill="#0D192F"/>
<path d="M7.59152 11.0831L8.09536 9.46144C8.14451 9.30978 8.09536 9.14644 7.98476 9.02978C7.86187 8.91311 7.68983 8.87811 7.53008 8.92478L5.80965 9.39144L4.10152 8.91311C3.94176 8.86644 3.76972 8.91311 3.64683 9.01811C3.52394 9.13478 3.48708 9.29811 3.53623 9.44978L4.02778 11.0831L3.52394 12.7048C3.47479 12.8564 3.52394 13.0198 3.63454 13.1364C3.75743 13.2531 3.92947 13.2881 4.08923 13.2414L5.79736 12.7631L7.5055 13.2414C7.54236 13.2531 7.59152 13.2531 7.64067 13.2531C7.76356 13.2531 7.87416 13.2064 7.97247 13.1248C8.09536 13.0081 8.13222 12.8448 8.08307 12.6931L7.59152 11.0831Z" fill="#0D192F"/>
<path d="M26.0246 16.9166L26.5285 15.2949C26.5776 15.1433 26.5285 14.9799 26.4179 14.8633C26.295 14.7466 26.1229 14.7116 25.9632 14.7583L24.2551 15.2366L22.5469 14.7583C22.3872 14.7116 22.2151 14.7583 22.0922 14.8633C21.9693 14.9799 21.9325 15.1433 21.9816 15.2949L22.4855 16.9166L21.9816 18.5383C21.9325 18.6899 21.9816 18.8533 22.0922 18.9699C22.2151 19.0866 22.3872 19.1216 22.5469 19.0749L24.2551 18.5966L25.9632 19.0749C26.0001 19.0866 26.0492 19.0866 26.0984 19.0866C26.2213 19.0866 26.3319 19.0399 26.4302 18.9583C26.5531 18.8416 26.5899 18.6783 26.5408 18.5266L26.0246 16.9166Z" fill="#0D192F"/>
</svg>
