<svg width="22" height="25" viewBox="0 0 22 25" fill="none" xmlns="http://www.w3.org/2000/svg">
<path d="M21.8555 20.2078V21.368H0.91748V20.2078L3.24393 17.8875V10.9264C3.24393 7.32989 5.60527 4.16261 9.06004 3.14166V2.80521C9.06004 2.18982 9.30515 1.59963 9.74144 1.16448C10.1777 0.729328 10.7695 0.484863 11.3865 0.484863C12.0035 0.484863 12.5952 0.729328 13.0315 1.16448C13.4678 1.59963 13.7129 2.18982 13.7129 2.80521V3.14166C17.1677 4.16261 19.5291 7.32989 19.5291 10.9264V17.8875L21.8555 20.2078ZM13.7129 22.5282C13.7129 23.1435 13.4678 23.7337 13.0315 24.1689C12.5952 24.604 12.0035 24.8485 11.3865 24.8485C10.7695 24.8485 10.1777 24.604 9.74144 24.1689C9.30515 23.7337 9.06004 23.1435 9.06004 22.5282" fill="#0D192F"/>
</svg>
