<svg width="14" height="11" viewBox="0 0 14 11" fill="none" xmlns="http://www.w3.org/2000/svg">
<path d="M12.6565 0.127441H1.3435C1.05349 0.127441 0.77535 0.242649 0.570279 0.44772C0.365208 0.652791 0.25 0.930927 0.25 1.22094V9.35694C0.25 9.50054 0.278284 9.64274 0.333238 9.77541C0.388191 9.90808 0.468738 10.0286 0.570279 10.1302C0.67182 10.2317 0.792366 10.3123 0.925036 10.3672C1.05771 10.4222 1.1999 10.4504 1.3435 10.4504H12.6565C12.8001 10.4504 12.9423 10.4222 13.075 10.3672C13.2076 10.3123 13.3282 10.2317 13.4297 10.1302C13.5313 10.0286 13.6118 9.90808 13.6668 9.77541C13.7217 9.64274 13.75 9.50054 13.75 9.35694V1.22094C13.75 1.07734 13.7217 0.935147 13.6668 0.802477C13.6118 0.669808 13.5313 0.549261 13.4297 0.44772C13.3282 0.346179 13.2076 0.265633 13.075 0.210679C12.9423 0.155726 12.8001 0.127441 12.6565 0.127441ZM2.0185 1.47894H11.9815C12.092 1.47934 12.1978 1.5234 12.2759 1.60151C12.354 1.67963 12.3981 1.78547 12.3985 1.89594V3.01044H1.5985V1.89594C1.5987 1.84098 1.60972 1.7866 1.63093 1.7359C1.65214 1.6852 1.68313 1.63918 1.72214 1.60046C1.76114 1.56173 1.80738 1.53107 1.85823 1.51022C1.90908 1.48937 1.96354 1.47874 2.0185 1.47894ZM11.9815 9.09894H2.0185C1.90803 9.09855 1.80219 9.05449 1.72407 8.97637C1.64596 8.89825 1.6019 8.79242 1.6015 8.68194V5.06394H12.4015V8.68194C12.4013 8.7369 12.3903 8.79128 12.3691 8.84198C12.3479 8.89268 12.3169 8.93871 12.2779 8.97743C12.2389 9.01615 12.1926 9.04681 12.1418 9.06766C12.0909 9.08851 12.0365 9.09914 11.9815 9.09894Z" fill="#B91724"/>
</svg>
