<svg width="24" height="24" viewBox="0 0 24 24" fill="none" xmlns="http://www.w3.org/2000/svg">
<g clip-path="url(#clip0_1220_2403)">
<path d="M14.4802 2.40744C14.3641 1.90631 14.0747 1.46231 13.663 1.15379C13.2514 0.845258 12.7441 0.692034 12.2305 0.721153C11.7169 0.750272 11.2301 0.959861 10.856 1.31294C10.4819 1.66601 10.2446 2.13988 10.1858 2.65092C10.1271 3.16196 10.2507 3.67733 10.535 4.10608C10.8192 4.53482 11.2457 4.8494 11.7393 4.99429C12.2329 5.13918 12.7618 5.10507 13.2327 4.89799C13.7035 4.6909 14.0861 4.32414 14.3129 3.86244C15.6937 4.17685 16.9772 4.82241 18.0528 5.74344C19.1284 6.66447 19.9638 7.83332 20.4869 9.14919L21.8182 8.62569C21.2019 7.06494 20.2096 5.68062 18.9295 4.59579C17.6493 3.51096 16.1209 2.75924 14.4802 2.40744ZM12.3637 3.63594C12.2662 3.63907 12.1691 3.62258 12.0782 3.58745C11.9872 3.55231 11.9043 3.49926 11.8342 3.43143C11.7642 3.3636 11.7085 3.28238 11.6705 3.1926C11.6324 3.10282 11.6128 3.00632 11.6128 2.90881C11.6128 2.81131 11.6324 2.7148 11.6705 2.62503C11.7085 2.53525 11.7642 2.45403 11.8342 2.3862C11.9043 2.31837 11.9872 2.26532 12.0782 2.23018C12.1691 2.19505 12.2662 2.17856 12.3637 2.18169C12.5566 2.18169 12.7417 2.25834 12.8781 2.39477C13.0145 2.5312 13.0912 2.71624 13.0912 2.90919C13.0912 3.10213 13.0145 3.28718 12.8781 3.42361C12.7417 3.56004 12.5566 3.63594 12.3637 3.63594ZM9.16344 4.24044L8.62569 2.90994C7.06494 3.52618 5.68062 4.51849 4.59579 5.79867C3.51096 7.07885 2.75924 8.60722 2.40744 10.2479C1.90631 10.3641 1.46231 10.6535 1.15379 11.0651C0.845258 11.4767 0.692034 11.9841 0.721153 12.4976C0.750272 13.0112 0.959861 13.498 1.31294 13.8721C1.66601 14.2462 2.13988 14.4836 2.65092 14.5423C3.16196 14.6011 3.67733 14.4774 4.10608 14.1932C4.53482 13.9089 4.8494 13.4824 4.99429 12.9888C5.13918 12.4953 5.10507 11.9664 4.89799 11.4955C4.6909 11.0246 4.32414 10.642 3.86244 10.4152C4.17814 9.03284 4.8258 7.7482 5.74943 6.67234C6.67305 5.59648 7.84483 4.76179 9.16344 4.24044ZM2.90844 13.0919C2.8129 13.0919 2.7183 13.0731 2.63004 13.0366C2.54177 13 2.46157 12.9464 2.39402 12.8789C2.32646 12.8113 2.27288 12.7311 2.23632 12.6428C2.19976 12.5546 2.18094 12.46 2.18094 12.3644C2.18094 12.2689 2.19976 12.1743 2.23632 12.086C2.27288 11.9978 2.32646 11.9176 2.39402 11.85C2.46157 11.7825 2.54177 11.7289 2.63004 11.6923C2.7183 11.6558 2.8129 11.6369 2.90844 11.6369C3.10138 11.6369 3.28643 11.7136 3.42286 11.85C3.55929 11.9865 3.63594 12.1715 3.63594 12.3644C3.63594 12.5574 3.55929 12.7424 3.42286 12.8789C3.28643 13.0153 3.10138 13.0919 2.90844 13.0919ZM12.3637 19.6372C11.958 19.6385 11.5606 19.7529 11.2163 19.9675C10.872 20.1821 10.5943 20.4885 10.4144 20.8522C9.03351 20.5378 7.7498 19.8922 6.67406 18.971C5.59831 18.0498 4.76283 16.8808 4.23969 15.5647L2.90919 16.1024C3.52744 17.6658 4.52307 19.0519 5.80727 20.1369C7.09146 21.2219 8.62427 21.9721 10.2689 22.3207C10.3634 22.7211 10.5691 23.0866 10.8624 23.3752C11.1556 23.6637 11.5244 23.8635 11.9263 23.9515C12.3282 24.0395 12.7468 24.0121 13.1337 23.8725C13.5207 23.7329 13.8604 23.4867 14.1135 23.1624C14.3667 22.8382 14.523 22.4489 14.5645 22.0396C14.606 21.6303 14.5309 21.2176 14.348 20.8491C14.1651 20.4806 13.8818 20.1713 13.5307 19.9569C13.1796 19.7425 12.775 19.6316 12.3637 19.6372ZM12.3637 22.5464C12.1707 22.5464 11.9857 22.4698 11.8493 22.3334C11.7128 22.1969 11.6362 22.0119 11.6362 21.8189C11.6362 21.626 11.7128 21.441 11.8493 21.3045C11.9857 21.1681 12.1707 21.0914 12.3637 21.0914C12.5566 21.0914 12.7417 21.1681 12.8781 21.3045C13.0145 21.441 13.0912 21.626 13.0912 21.8189C13.0912 22.0119 13.0145 22.1969 12.8781 22.3334C12.7417 22.4698 12.5566 22.5464 12.3637 22.5464ZM23.9999 12.3637C24.0013 11.9743 23.8984 11.5916 23.702 11.2554C23.5055 10.9191 23.2227 10.6416 22.8829 10.4515C22.543 10.2614 22.1585 10.1657 21.7692 10.1743C21.3798 10.1829 20.9999 10.2955 20.6688 10.5005C20.3377 10.7054 20.0674 10.9952 19.8861 11.3398C19.7047 11.6844 19.6189 12.0713 19.6374 12.4602C19.656 12.8492 19.7783 13.2261 19.9916 13.5519C20.205 13.8777 20.5016 14.1404 20.8507 14.3129C20.5362 15.6937 19.8905 16.9773 18.9694 18.0529C18.0482 19.1285 16.8792 19.9639 15.5632 20.4869L16.1017 21.8182C17.6651 21.1999 19.0511 20.2043 20.1361 18.9201C21.2211 17.6359 21.9714 16.1031 22.3199 14.4584C22.7934 14.3465 23.2158 14.0795 23.5202 13.7C23.8246 13.3205 23.9934 12.8501 23.9999 12.3637ZM21.8174 13.0912C21.6245 13.0912 21.4395 13.0145 21.303 12.8781C21.1666 12.7417 21.0899 12.5566 21.0899 12.3637C21.0899 12.1707 21.1666 11.9857 21.303 11.8493C21.4395 11.7128 21.6245 11.6362 21.8174 11.6362C22.0104 11.6362 22.1954 11.7128 22.3319 11.8493C22.4683 11.9857 22.5449 12.1707 22.5449 12.3637C22.5449 12.5566 22.4683 12.7417 22.3319 12.8781C22.1954 13.0145 22.0104 13.0912 21.8174 13.0912Z" fill="#54577A"/>
<path d="M14.3926 12.2625C14.8063 11.8584 15.0903 11.3402 15.2082 10.774C15.3261 10.2078 15.2726 9.61932 15.0544 9.08369C14.8363 8.54805 14.4635 8.08959 13.9835 7.76685C13.5036 7.44411 12.9384 7.27173 12.3601 7.27173C11.7817 7.27173 11.2165 7.44411 10.7366 7.76685C10.2566 8.08959 9.88381 8.54805 9.66567 9.08369C9.44753 9.61932 9.39399 10.2078 9.51189 10.774C9.62978 11.3402 9.91376 11.8584 10.3276 12.2625C9.83512 12.5953 9.43175 13.0438 9.15273 13.5686C8.87372 14.0934 8.72756 14.6786 8.72705 15.273V16.7272H15.9998V15.2722C15.9985 14.6773 15.8514 14.0917 15.5711 13.5668C15.2909 13.0419 14.8862 12.5946 14.3926 12.2625ZM10.9088 10.1812C10.9088 9.99016 10.9464 9.80096 11.0196 9.62443C11.0927 9.4479 11.1999 9.28751 11.335 9.1524C11.4701 9.01729 11.6305 8.91011 11.807 8.83699C11.9835 8.76387 12.1727 8.72624 12.3638 8.72624C12.5549 8.72624 12.7441 8.76387 12.9206 8.83699C13.0971 8.91011 13.2575 9.01729 13.3926 9.1524C13.5278 9.28751 13.6349 9.4479 13.708 9.62443C13.7812 9.80096 13.8188 9.99016 13.8188 10.1812C13.8188 10.5671 13.6655 10.9372 13.3926 11.2101C13.1198 11.4829 12.7497 11.6362 12.3638 11.6362C11.9779 11.6362 11.6078 11.4829 11.335 11.2101C11.0621 10.9372 10.9088 10.5671 10.9088 10.1812ZM10.1813 15.2722C10.1759 14.9823 10.2284 14.6941 10.3356 14.4247C10.4429 14.1552 10.6028 13.9099 10.8059 13.7029C11.0091 13.4959 11.2515 13.3315 11.5189 13.2193C11.7863 13.1071 12.0734 13.0493 12.3634 13.0493C12.6534 13.0493 12.9405 13.1071 13.208 13.2193C13.4754 13.3315 13.7178 13.4959 13.9209 13.7029C14.1241 13.9099 14.284 14.1552 14.3912 14.4247C14.4985 14.6941 14.5509 14.9823 14.5456 15.2722H10.1813Z" fill="#54577A"/>
</g>
<defs>
<clipPath id="clip0_1220_2403">
<rect width="24" height="24" fill="white"/>
</clipPath>
</defs>
</svg>
