<svg width="14" height="16" viewBox="0 0 14 16" fill="none" xmlns="http://www.w3.org/2000/svg">
<path d="M11.21 7.81801H2.75423V6.29404H11.21V7.81801ZM11.21 4.40639H2.75423V2.88242H11.21V4.40639ZM4.4604 12.4271L3.58946 12.8265L3.48085 11.9191L2.71851 11.3747L3.48085 10.8302L3.58946 9.92285L4.42396 10.3222L5.25847 9.92285L5.36707 10.8302L6.12941 11.3747L5.40351 11.8827L5.29491 12.79L4.4604 12.4271ZM10.049 10.5037H12.0453L8.67008 13.8789V11.8827C8.67008 11.1203 9.28668 10.5037 10.049 10.5037ZM12.2625 0.378187H1.73825C0.903744 0.378187 0.25 1.14053 0.25 2.08364V13.9146C0.25 14.8584 0.939468 15.6201 1.73825 15.6201H8.66937L13.75 10.5394V2.0472C13.75 1.10338 13.0605 0.377472 12.2625 0.377472V0.378187Z" fill="#1A1A18"/>
</svg>
