<svg width="40" height="39" viewBox="0 0 40 39" fill="none" xmlns="http://www.w3.org/2000/svg">
<path d="M29.7291 2.77078L36.4121 9.73729V36.2292H11.4468V36.3157H36.4974V9.82497L29.7291 2.77078Z" fill="#909090"/>
<path d="M29.6461 2.6843H11.3615V36.2292H36.4121V9.73849L29.6461 2.6843Z" fill="#F4F4F4"/>
<path d="M11.1776 4.48596H3.50244V12.686H27.645V4.48596H11.1776Z" fill="#7A7B7C"/>
<path d="M27.7736 12.5467H3.65869V4.34067H27.7736V12.5467Z" fill="#DD2025"/>
<path d="M11.6546 5.72797H10.0847V11.4934H11.3195V9.54874L11.5921 9.56435C11.8571 9.5607 12.1197 9.51322 12.3693 9.42382C12.5886 9.34935 12.7902 9.23035 12.9614 9.0743C13.137 8.92709 13.2749 8.74015 13.3638 8.52899C13.4854 8.17912 13.5284 7.80676 13.4899 7.43837C13.4831 7.17515 13.4369 6.91442 13.353 6.66485C13.2773 6.48445 13.1649 6.32183 13.0228 6.18739C12.8807 6.05295 12.7121 5.94966 12.5278 5.88412C12.3689 5.82527 12.2042 5.7834 12.0365 5.7592C11.9099 5.73857 11.7817 5.72813 11.6534 5.72797M11.4264 8.48334H11.3195V6.70568H11.5513C11.6536 6.69831 11.7563 6.71401 11.8517 6.75164C11.9471 6.78927 12.0329 6.84786 12.1026 6.92309C12.2471 7.11648 12.3243 7.35189 12.3224 7.59331C12.3224 7.88879 12.3224 8.15664 12.0558 8.34522C11.8637 8.451 11.645 8.49978 11.4264 8.48334ZM15.8357 5.71236C15.7024 5.71236 15.5726 5.72196 15.4814 5.72557L15.1955 5.73277H14.2586V11.4982H15.3612C15.7826 11.509 16.202 11.4376 16.596 11.288C16.9132 11.1627 17.194 10.9599 17.4128 10.6982C17.6271 10.4354 17.7802 10.128 17.8608 9.79857C17.9555 9.42614 18.0015 9.04299 17.9977 8.65871C18.0212 8.20487 17.9861 7.7499 17.8932 7.30504C17.8043 6.97797 17.6397 6.67638 17.4128 6.42462C17.2348 6.22104 17.0158 6.05733 16.7702 5.94417C16.5598 5.84664 16.3384 5.77485 16.1107 5.73037C16.0202 5.71554 15.9286 5.7087 15.8369 5.70995M15.6183 10.4388H15.4982V6.75853H15.5138C15.7614 6.7299 16.012 6.77459 16.2345 6.88705C16.3974 7.01717 16.5302 7.18109 16.6236 7.3675C16.7245 7.56369 16.7826 7.77901 16.7942 7.99929C16.805 8.26354 16.7942 8.47974 16.7942 8.65871C16.7986 8.86486 16.7854 9.071 16.7545 9.27488C16.7168 9.48396 16.6484 9.68632 16.5516 9.87545C16.4422 10.0518 16.2928 10.2 16.1156 10.3078C15.9675 10.4039 15.7919 10.4487 15.6159 10.4352M21.7176 5.73277H18.7989V11.4982H20.0336V9.21122H21.5951V8.13982H20.0336V6.80418H21.7152V5.73277" fill="#464648"/>
<path d="M26.9437 24.6108C26.9437 24.6108 30.7728 23.9165 30.7728 25.2246C30.7728 26.5326 28.4006 26.0005 26.9437 24.6108ZM24.1126 24.7105C23.5041 24.8445 22.9112 25.0414 22.3434 25.2978L22.8238 24.2168C23.3043 23.1358 23.8027 21.662 23.8027 21.662C24.3746 22.6279 25.0418 23.534 25.7942 24.367C25.2277 24.4513 24.6664 24.5668 24.1126 24.7129V24.7105ZM22.5968 16.9032C22.5968 15.7633 22.9655 15.4522 23.2526 15.4522C23.5397 15.4522 23.8628 15.5904 23.8736 16.5801C23.7799 17.5753 23.5716 18.5563 23.2526 19.5036C22.8142 18.7088 22.588 17.8145 22.5956 16.9068L22.5968 16.9032ZM17.0128 29.5342C15.8381 28.8315 19.4763 26.6683 20.1357 26.5986C20.1321 26.5998 18.2427 30.2693 17.0128 29.5342ZM31.8911 25.3795C31.8791 25.2594 31.771 23.9297 29.4048 23.9862C28.4184 23.9689 27.4325 24.0384 26.4584 24.194C25.5142 23.2436 24.7014 22.1711 24.0417 21.005C24.4571 19.803 24.7088 18.5506 24.79 17.2815C24.7552 15.8402 24.4105 15.0138 23.3055 15.0258C22.2004 15.0378 22.0395 16.0047 22.1848 17.4437C22.3271 18.4107 22.5956 19.3548 22.9836 20.2519C22.9836 20.2519 22.4731 21.841 21.7981 23.4217C21.123 25.0023 20.6618 25.8311 20.6618 25.8311C19.4878 26.2128 18.3827 26.7806 17.3887 27.5127C16.399 28.434 15.9966 29.1414 16.5179 29.8489C16.9671 30.459 18.5394 30.5972 19.9447 28.7559C20.6901 27.8039 21.3722 26.804 21.9866 25.7627C21.9866 25.7627 24.1294 25.1753 24.7961 25.0144C25.4627 24.8534 26.2686 24.7261 26.2686 24.7261C26.2686 24.7261 28.2253 26.6947 30.1122 26.6251C31.9992 26.5554 31.9079 25.4972 31.8959 25.3819" fill="#DD2025"/>
<path d="M29.5536 2.77679V9.83099H36.3195L29.5536 2.77679Z" fill="#909090"/>
<path d="M29.6461 2.6843V9.73849H36.412L29.6461 2.6843Z" fill="#F4F4F4"/>
<path d="M11.5621 5.63547H9.99219V11.4009H11.2317V9.45744L11.5056 9.47306C11.7706 9.46941 12.0332 9.42192 12.2827 9.33253C12.5021 9.25805 12.7037 9.13905 12.8749 8.983C13.0491 8.83539 13.1858 8.64848 13.2737 8.43769C13.3953 8.08782 13.4383 7.71546 13.3998 7.34707C13.3929 7.08385 13.3468 6.82313 13.2628 6.57355C13.1872 6.39315 13.0748 6.23053 12.9327 6.09609C12.7906 5.96165 12.622 5.85836 12.4377 5.79282C12.2781 5.7334 12.1126 5.69112 11.944 5.6667C11.8173 5.64607 11.6892 5.63563 11.5609 5.63547M11.3338 8.39085H11.2269V6.61318H11.46C11.5623 6.60581 11.6649 6.62151 11.7604 6.65914C11.8558 6.69677 11.9415 6.75536 12.0113 6.83059C12.1558 7.02399 12.233 7.25939 12.2311 7.50081C12.2311 7.79629 12.2311 8.06414 11.9644 8.25272C11.7724 8.3585 11.5537 8.40608 11.335 8.38964M15.7432 5.61986C15.6098 5.61986 15.4801 5.62947 15.3888 5.63307L15.1066 5.64028H14.1697V11.4057H15.2723C15.6937 11.4165 16.1131 11.3451 16.5071 11.1955C16.8243 11.0702 17.1051 10.8674 17.3238 10.6057C17.5382 10.3429 17.6912 10.0355 17.7719 9.70608C17.8666 9.33364 17.9126 8.95049 17.9088 8.56621C17.9323 8.11237 17.8972 7.6574 17.8043 7.21254C17.7154 6.88547 17.5508 6.58388 17.3238 6.33212C17.1458 6.12854 16.9269 5.96483 16.6812 5.85167C16.4708 5.75414 16.2494 5.68236 16.0218 5.63787C15.9313 5.62304 15.8397 5.6162 15.748 5.61745M15.5294 10.3463H15.4092V6.66603H15.4249C15.6725 6.6374 15.9231 6.68209 16.1455 6.79455C16.3085 6.92467 16.4413 7.08859 16.5347 7.275C16.6355 7.47119 16.6937 7.68651 16.7053 7.90679C16.7161 8.17104 16.7053 8.38724 16.7053 8.56621C16.7097 8.77236 16.6964 8.97851 16.6656 9.18239C16.6278 9.39146 16.5594 9.59382 16.4626 9.78295C16.3533 9.95932 16.2039 10.1075 16.0266 10.2154C15.8785 10.3114 15.703 10.3562 15.527 10.3427M21.6251 5.64028H18.7063V11.4057H19.9411V9.11873H21.5025V8.04733H19.9411V6.71168H21.6227V5.64028" fill="white"/>
</svg>
